<svg xmlns="http://www.w3.org/2000/svg" xmlns:xlink="http://www.w3.org/1999/xlink" contentStyleType="text/css" data-diagram-type="SEQUENCE" height="2696.875px" preserveAspectRatio="none" style="width:2675px;height:2696px;background:#FFFFFF;" version="1.1" viewBox="0 0 2675 2696" width="2675px" zoomAndPan="magnify"><defs/><g><g><title>planner_node</title><rect fill="#FFFFFF" height="1330.8777" style="stroke:#181818;stroke-width:3.125;" width="31.25" x="882.7866" y="219.2322"/></g><g><title>generation_node</title><rect fill="#FFFFFF" height="882.6904" style="stroke:#181818;stroke-width:3.125;" width="31.25" x="1494.7266" y="1641.7053"/></g><rect fill="none" height="828.595" style="stroke:#000000;stroke-width:4.6875;" width="1652.8229" x="680.2963" y="266.1072"/><rect fill="none" height="323.1873" style="stroke:#000000;stroke-width:4.6875;" width="753.9627" x="680.2963" y="1138.4521"/><rect fill="none" height="380.9631" style="stroke:#000000;stroke-width:4.6875;" width="928.0533" x="1253.7476" y="1871.7712"/><g><title>...</title><rect fill="#000000" fill-opacity="0.00000" height="2459.259" width="25" x="100" y="121.3867"/><line style="stroke:#181818;stroke-width:1.5625;stroke-dasharray:15.625,15.625;" x1="112.5" x2="112.5" y1="121.3867" y2="2580.6458"/></g><g><title>planner_node</title><rect fill="#000000" fill-opacity="0.00000" height="2459.259" width="25" x="885.9116" y="121.3867"/><line style="stroke:#181818;stroke-width:1.5625;stroke-dasharray:15.625,15.625;" x1="895.9213" x2="895.9213" y1="121.3867" y2="2580.6458"/></g><g><title>generation_node</title><rect fill="#000000" fill-opacity="0.00000" height="2459.259" width="25" x="1497.8516" y="121.3867"/><line style="stroke:#181818;stroke-width:1.5625;stroke-dasharray:15.625,15.625;" x1="1509.9976" x2="1509.9976" y1="121.3867" y2="2580.6458"/></g><g><title>LLM..</title><rect fill="#000000" fill-opacity="0.00000" height="2459.259" width="25" x="2169.3008" y="121.3867"/><line style="stroke:#181818;stroke-width:1.5625;stroke-dasharray:15.625,15.625;" x1="2180.4825" x2="2180.4825" y1="121.3867" y2="2580.6458"/></g><g><title>StrategyFile</title><rect fill="#000000" fill-opacity="0.00000" height="2459.259" width="25" x="2483.0582" y="121.3867"/><line style="stroke:#181818;stroke-width:1.5625;stroke-dasharray:15.625,15.625;" x1="2492.4942" x2="2492.4942" y1="121.3867" y2="2580.6458"/></g><g class="participant participant-head" data-participant="Main"><rect fill="#E2E2F0" height="102.6367" rx="7.8125" ry="7.8125" style="stroke:#181818;stroke-width:1.5625;" width="193.75" x="15.625" y="15.625"/><text fill="#000000" font-family="sans-serif" font-size="50" lengthAdjust="spacing" textLength="150" x="37.5" y="85.8398">&#20027;&#20989;&#25968;</text></g><g class="participant participant-tail" data-participant="Main"><rect fill="#E2E2F0" height="102.6367" rx="7.8125" ry="7.8125" style="stroke:#181818;stroke-width:1.5625;" width="193.75" x="15.625" y="2577.5208"/><text fill="#000000" font-family="sans-serif" font-size="50" lengthAdjust="spacing" textLength="150" x="37.5" y="2647.7356">&#20027;&#20989;&#25968;</text></g><g class="participant participant-head" data-participant="PN"><rect fill="#E2E2F0" height="102.6367" rx="7.8125" ry="7.8125" style="stroke:#181818;stroke-width:1.5625;" width="373.7305" x="711.5463" y="15.625"/><text fill="#000000" font-family="sans-serif" font-size="50" lengthAdjust="spacing" textLength="329.9805" x="733.4213" y="85.8398">planner_node</text></g><g class="participant participant-tail" data-participant="PN"><rect fill="#E2E2F0" height="102.6367" rx="7.8125" ry="7.8125" style="stroke:#181818;stroke-width:1.5625;" width="373.7305" x="711.5463" y="2577.5208"/><text fill="#000000" font-family="sans-serif" font-size="50" lengthAdjust="spacing" textLength="329.9805" x="733.4213" y="2647.7356">planner_node</text></g><g class="participant participant-head" data-participant="GN"><rect fill="#E2E2F0" height="102.6367" rx="7.8125" ry="7.8125" style="stroke:#181818;stroke-width:1.5625;" width="450.708" x="1284.9976" y="15.625"/><text fill="#000000" font-family="sans-serif" font-size="50" lengthAdjust="spacing" textLength="406.958" x="1306.8726" y="85.8398">generation_node</text></g><g class="participant participant-tail" data-participant="GN"><rect fill="#E2E2F0" height="102.6367" rx="7.8125" ry="7.8125" style="stroke:#181818;stroke-width:1.5625;" width="450.708" x="1284.9976" y="2577.5208"/><text fill="#000000" font-family="sans-serif" font-size="50" lengthAdjust="spacing" textLength="406.958" x="1306.8726" y="2647.7356">generation_node</text></g><g class="participant participant-head" data-participant="LLM"><rect fill="#E2E2F0" height="102.6367" rx="7.8125" ry="7.8125" style="stroke:#181818;stroke-width:1.5625;" width="240.1367" x="2061.7325" y="15.625"/><text fill="#000000" font-family="sans-serif" font-size="50" lengthAdjust="spacing" textLength="196.3867" x="2083.6075" y="85.8398">LLM&#26381;&#21153;</text></g><g class="participant participant-tail" data-participant="LLM"><rect fill="#E2E2F0" height="102.6367" rx="7.8125" ry="7.8125" style="stroke:#181818;stroke-width:1.5625;" width="240.1367" x="2061.7325" y="2577.5208"/><text fill="#000000" font-family="sans-serif" font-size="50" lengthAdjust="spacing" textLength="196.3867" x="2083.6075" y="2647.7356">LLM&#26381;&#21153;</text></g><g class="participant participant-head" data-participant="SF"><rect fill="#E2E2F0" height="102.6367" rx="7.8125" ry="7.8125" style="stroke:#181818;stroke-width:1.5625;" width="324.8779" x="2333.1192" y="15.625"/><text fill="#000000" font-family="sans-serif" font-size="50" lengthAdjust="spacing" textLength="281.1279" x="2354.9942" y="85.8398">StrategyFile</text></g><g class="participant participant-tail" data-participant="SF"><rect fill="#E2E2F0" height="102.6367" rx="7.8125" ry="7.8125" style="stroke:#181818;stroke-width:1.5625;" width="324.8779" x="2333.1192" y="2577.5208"/><text fill="#000000" font-family="sans-serif" font-size="50" lengthAdjust="spacing" textLength="281.1279" x="2354.9942" y="2647.7356">StrategyFile</text></g><g><title>planner_node</title><rect fill="#FFFFFF" height="1330.8777" style="stroke:#181818;stroke-width:3.125;" width="31.25" x="882.7866" y="219.2322"/></g><g><title>generation_node</title><rect fill="#FFFFFF" height="882.6904" style="stroke:#181818;stroke-width:3.125;" width="31.25" x="1494.7266" y="1641.7053"/></g><g class="message" data-participant-1="Main" data-participant-2="PN"><polygon fill="#181818" points="845.2866,206.7322,876.5366,219.2322,845.2866,231.7322,857.7866,219.2322" style="stroke:#181818;stroke-width:3.125;"/><line style="stroke:#181818;stroke-width:3.125;" x1="112.5" x2="864.0366" y1="219.2322" y2="219.2322"/><text fill="#000000" font-family="sans-serif" font-size="40.625" lengthAdjust="spacing" textLength="390.6982" x="134.375" y="204.4128">planner_node(state)</text></g><path d="M680.2963,266.1072 L874.4797,266.1072 L874.4797,288.9526 L843.2297,320.2026 L680.2963,320.2026 L680.2963,266.1072" fill="#EEEEEE" style="stroke:#000000;stroke-width:4.6875;"/><rect fill="none" height="828.595" style="stroke:#000000;stroke-width:4.6875;" width="1652.8229" x="680.2963" y="266.1072"/><text fill="#000000" font-family="sans-serif" font-size="40.625" font-weight="bold" lengthAdjust="spacing" textLength="53.5583" x="727.1713" y="308.5083">alt</text><text fill="#000000" font-family="sans-serif" font-size="43.75" font-weight="bold" lengthAdjust="spacing" textLength="442.1356" x="921.3547" y="314.6545">[Round 1 (&#25506;&#32034;&#38454;&#27573;)]</text><g class="message" data-participant-1="PN" data-participant-2="PN"><line style="stroke:#181818;stroke-width:3.125;" x1="914.0366" x2="1045.2866" y1="391.449" y2="391.449"/><line style="stroke:#181818;stroke-width:3.125;" x1="1045.2866" x2="1045.2866" y1="391.449" y2="432.074"/><line style="stroke:#181818;stroke-width:3.125;" x1="917.1616" x2="1045.2866" y1="432.074" y2="432.074"/><polygon fill="#181818" points="948.4116,419.574,917.1616,432.074,948.4116,444.574,935.9116,432.074" style="stroke:#181818;stroke-width:3.125;"/><text fill="#000000" font-family="sans-serif" font-size="40.625" lengthAdjust="spacing" textLength="261.821" x="935.9116" y="376.6296">_plan_initial()</text></g><g class="message" data-participant-1="PN" data-participant-2="LLM"><polygon fill="#181818" points="2144.3008,511.1694,2175.5508,523.6694,2144.3008,536.1694,2156.8008,523.6694" style="stroke:#181818;stroke-width:3.125;"/><line style="stroke:#181818;stroke-width:3.125;" x1="914.0366" x2="2163.0508" y1="523.6694" y2="523.6694"/><text fill="#000000" font-family="sans-serif" font-size="40.625" lengthAdjust="spacing" textLength="243.75" x="935.9116" y="508.8501">&#22330;&#26223;&#25512;&#29702;&#35831;&#27714;</text></g><g class="message" data-participant-1="LLM" data-participant-2="PN"><polygon fill="#181818" points="948.4116,602.7649,917.1616,615.2649,948.4116,627.7649,935.9116,615.2649" style="stroke:#181818;stroke-width:3.125;"/><line style="stroke:#181818;stroke-width:3.125;stroke-dasharray:6.25,6.25;" x1="929.6616" x2="2178.6758" y1="615.2649" y2="615.2649"/><text fill="#000000" font-family="sans-serif" font-size="40.625" lengthAdjust="spacing" textLength="297.0703" x="967.1616" y="600.4456">JSON(slots&#35268;&#21010;)</text></g><g class="message" data-participant-1="PN" data-participant-2="PN"><line style="stroke:#181818;stroke-width:3.125;" x1="914.0366" x2="1045.2866" y1="706.8604" y2="706.8604"/><line style="stroke:#181818;stroke-width:3.125;" x1="1045.2866" x2="1045.2866" y1="706.8604" y2="747.4854"/><line style="stroke:#181818;stroke-width:3.125;" x1="917.1616" x2="1045.2866" y1="747.4854" y2="747.4854"/><polygon fill="#181818" points="948.4116,734.9854,917.1616,747.4854,948.4116,759.9854,935.9116,747.4854" style="stroke:#181818;stroke-width:3.125;"/><text fill="#000000" font-family="sans-serif" font-size="40.625" lengthAdjust="spacing" textLength="476.0941" x="935.9116" y="692.041">_parse_planner_output()</text></g><g class="message" data-participant-1="PN" data-participant-2="PN"><line style="stroke:#181818;stroke-width:3.125;" x1="914.0366" x2="1045.2866" y1="839.0808" y2="839.0808"/><line style="stroke:#181818;stroke-width:3.125;" x1="1045.2866" x2="1045.2866" y1="839.0808" y2="879.7058"/><line style="stroke:#181818;stroke-width:3.125;" x1="917.1616" x2="1045.2866" y1="879.7058" y2="879.7058"/><polygon fill="#181818" points="948.4116,867.2058,917.1616,879.7058,948.4116,892.2058,935.9116,879.7058" style="stroke:#181818;stroke-width:3.125;"/><text fill="#000000" font-family="sans-serif" font-size="40.625" lengthAdjust="spacing" textLength="505.69" x="935.9116" y="824.2615">_build_slots_from_specs()</text></g><line style="stroke:#000000;stroke-width:3.125;stroke-dasharray:6.25,6.25;" x1="680.2963" x2="2333.1192" y1="907.8308" y2="907.8308"/><text fill="#000000" font-family="sans-serif" font-size="43.75" font-weight="bold" lengthAdjust="spacing" textLength="210.5255" x="695.9213" y="950.1282">[LLM&#22833;&#36133;]</text><g class="message" data-participant-1="PN" data-participant-2="PN"><line style="stroke:#181818;stroke-width:3.125;" x1="914.0366" x2="1045.2866" y1="1029.0771" y2="1029.0771"/><line style="stroke:#181818;stroke-width:3.125;" x1="1045.2866" x2="1045.2866" y1="1029.0771" y2="1069.7021"/><line style="stroke:#181818;stroke-width:3.125;" x1="917.1616" x2="1045.2866" y1="1069.7021" y2="1069.7021"/><polygon fill="#181818" points="948.4116,1057.2021,917.1616,1069.7021,948.4116,1082.2021,935.9116,1069.7021" style="stroke:#181818;stroke-width:3.125;"/><text fill="#000000" font-family="sans-serif" font-size="40.625" lengthAdjust="spacing" textLength="449.7513" x="935.9116" y="1014.2578">_fallback_rule_engine()</text></g><path d="M680.2963,1138.4521 L874.4797,1138.4521 L874.4797,1161.2976 L843.2297,1192.5476 L680.2963,1192.5476 L680.2963,1138.4521" fill="#EEEEEE" style="stroke:#000000;stroke-width:4.6875;"/><rect fill="none" height="323.1873" style="stroke:#000000;stroke-width:4.6875;" width="753.9627" x="680.2963" y="1138.4521"/><text fill="#000000" font-family="sans-serif" font-size="40.625" font-weight="bold" lengthAdjust="spacing" textLength="53.5583" x="727.1713" y="1180.8533">alt</text><text fill="#000000" font-family="sans-serif" font-size="43.75" font-weight="bold" lengthAdjust="spacing" textLength="476.9348" x="921.3547" y="1186.9995">[Round 2+ (&#21033;&#29992;&#38454;&#27573;)]</text><g class="message" data-participant-1="PN" data-participant-2="PN"><line style="stroke:#181818;stroke-width:3.125;" x1="914.0366" x2="1045.2866" y1="1263.7939" y2="1263.7939"/><line style="stroke:#181818;stroke-width:3.125;" x1="1045.2866" x2="1045.2866" y1="1263.7939" y2="1304.4189"/><line style="stroke:#181818;stroke-width:3.125;" x1="917.1616" x2="1045.2866" y1="1304.4189" y2="1304.4189"/><polygon fill="#181818" points="948.4116,1291.9189,917.1616,1304.4189,948.4116,1316.9189,935.9116,1304.4189" style="stroke:#181818;stroke-width:3.125;"/><text fill="#000000" font-family="sans-serif" font-size="40.625" lengthAdjust="spacing" textLength="278.4637" x="935.9116" y="1248.9746">_plan_iterate()</text></g><g class="message" data-participant-1="PN" data-participant-2="PN"><line style="stroke:#181818;stroke-width:3.125;" x1="914.0366" x2="1045.2866" y1="1396.0144" y2="1396.0144"/><line style="stroke:#181818;stroke-width:3.125;" x1="1045.2866" x2="1045.2866" y1="1396.0144" y2="1436.6394"/><line style="stroke:#181818;stroke-width:3.125;" x1="917.1616" x2="1045.2866" y1="1436.6394" y2="1436.6394"/><polygon fill="#181818" points="948.4116,1424.1394,917.1616,1436.6394,948.4116,1449.1394,935.9116,1436.6394" style="stroke:#181818;stroke-width:3.125;"/><text fill="#000000" font-family="sans-serif" font-size="40.625" lengthAdjust="spacing" textLength="429.5975" x="935.9116" y="1381.1951">plateau&#26816;&#27979;&#19982;&#31574;&#30053;&#20999;&#25442;</text></g><g class="message" data-participant-1="PN" data-participant-2="Main"><polygon fill="#181818" points="146.875,1537.6099,115.625,1550.1099,146.875,1562.6099,134.375,1550.1099" style="stroke:#181818;stroke-width:3.125;"/><line style="stroke:#181818;stroke-width:3.125;stroke-dasharray:6.25,6.25;" x1="128.125" x2="895.2866" y1="1550.1099" y2="1550.1099"/><text fill="#000000" font-family="sans-serif" font-size="40.625" lengthAdjust="spacing" textLength="695.2866" x="165.625" y="1535.2905">{harness_slots, strategy_selections}</text></g><g class="message" data-participant-1="Main" data-participant-2="GN"><polygon fill="#181818" points="1457.2266,1629.2053,1488.4766,1641.7053,1457.2266,1654.2053,1469.7266,1641.7053" style="stroke:#181818;stroke-width:3.125;"/><line style="stroke:#181818;stroke-width:3.125;" x1="112.5" x2="1475.9766" y1="1641.7053" y2="1641.7053"/><text fill="#000000" font-family="sans-serif" font-size="40.625" lengthAdjust="spacing" textLength="453.2425" x="134.375" y="1626.886">generation_node(state)</text></g><g class="message" data-participant-1="GN" data-participant-2="SF"><polygon fill="#181818" points="2458.0582,1720.8008,2489.3082,1733.3008,2458.0582,1745.8008,2470.5582,1733.3008" style="stroke:#181818;stroke-width:3.125;"/><line style="stroke:#181818;stroke-width:3.125;" x1="1525.9766" x2="2476.8082" y1="1733.3008" y2="1733.3008"/><text fill="#000000" font-family="sans-serif" font-size="40.625" lengthAdjust="spacing" textLength="481.1722" x="1547.8516" y="1718.4814">_load_strategy_suffix(id)</text></g><g class="message" data-participant-1="SF" data-participant-2="GN"><polygon fill="#181818" points="1560.3516,1812.3962,1529.1016,1824.8962,1560.3516,1837.3962,1547.8516,1824.8962" style="stroke:#181818;stroke-width:3.125;"/><line style="stroke:#181818;stroke-width:3.125;stroke-dasharray:6.25,6.25;" x1="1541.6016" x2="2492.4332" y1="1824.8962" y2="1824.8962"/><text fill="#000000" font-family="sans-serif" font-size="40.625" lengthAdjust="spacing" textLength="162.5" x="1579.1016" y="1810.0769">&#31574;&#30053;&#27491;&#25991;</text></g><path d="M1253.7476,1871.7712 L1447.9309,1871.7712 L1447.9309,1894.6167 L1416.6809,1925.8667 L1253.7476,1925.8667 L1253.7476,1871.7712" fill="#EEEEEE" style="stroke:#000000;stroke-width:4.6875;"/><rect fill="none" height="380.9631" style="stroke:#000000;stroke-width:4.6875;" width="928.0533" x="1253.7476" y="1871.7712"/><text fill="#000000" font-family="sans-serif" font-size="40.625" font-weight="bold" lengthAdjust="spacing" textLength="53.5583" x="1300.6226" y="1914.1724">alt</text><text fill="#000000" font-family="sans-serif" font-size="43.75" font-weight="bold" lengthAdjust="spacing" textLength="442.1356" x="1494.8059" y="1920.3186">[Round 1 (&#20174;&#38646;&#29983;&#25104;)]</text><g class="message" data-participant-1="GN" data-participant-2="GN"><line style="stroke:#181818;stroke-width:3.125;" x1="1525.9766" x2="1657.2266" y1="1997.113" y2="1997.113"/><line style="stroke:#181818;stroke-width:3.125;" x1="1657.2266" x2="1657.2266" y1="1997.113" y2="2037.738"/><line style="stroke:#181818;stroke-width:3.125;" x1="1529.1016" x2="1657.2266" y1="2037.738" y2="2037.738"/><polygon fill="#181818" points="1560.3516,2025.238,1529.1016,2037.738,1560.3516,2050.238,1547.8516,2037.738" style="stroke:#181818;stroke-width:3.125;"/><text fill="#000000" font-family="sans-serif" font-size="40.625" lengthAdjust="spacing" textLength="433.1482" x="1547.8516" y="1982.2937">_build_fresh_prompt()</text></g><line style="stroke:#000000;stroke-width:3.125;stroke-dasharray:6.25,6.25;" x1="1253.7476" x2="2181.8008" y1="2065.863" y2="2065.863"/><text fill="#000000" font-family="sans-serif" font-size="43.75" font-weight="bold" lengthAdjust="spacing" textLength="476.9348" x="1269.3726" y="2108.1604">[Round 2+ (&#22686;&#37327;&#25913;&#36827;)]</text><g class="message" data-participant-1="GN" data-participant-2="GN"><line style="stroke:#181818;stroke-width:3.125;" x1="1525.9766" x2="1657.2266" y1="2187.1094" y2="2187.1094"/><line style="stroke:#181818;stroke-width:3.125;" x1="1657.2266" x2="1657.2266" y1="2187.1094" y2="2227.7344"/><line style="stroke:#181818;stroke-width:3.125;" x1="1529.1016" x2="1657.2266" y1="2227.7344" y2="2227.7344"/><polygon fill="#181818" points="1560.3516,2215.2344,1529.1016,2227.7344,1560.3516,2240.2344,1547.8516,2227.7344" style="stroke:#181818;stroke-width:3.125;"/><text fill="#000000" font-family="sans-serif" font-size="40.625" lengthAdjust="spacing" textLength="565.1993" x="1547.8516" y="2172.29">_build_incremental_prompt()</text></g><g class="message" data-participant-1="GN" data-participant-2="LLM"><polygon fill="#181818" points="2144.3008,2328.7048,2175.5508,2341.2048,2144.3008,2353.7048,2156.8008,2341.2048" style="stroke:#181818;stroke-width:3.125;"/><line style="stroke:#181818;stroke-width:3.125;" x1="1525.9766" x2="2163.0508" y1="2341.2048" y2="2341.2048"/><text fill="#000000" font-family="sans-serif" font-size="40.625" lengthAdjust="spacing" textLength="492.4393" x="1547.8516" y="2326.3855">&#24182;&#34892;&#29983;&#25104;&#35831;&#27714;(ThreadPool)</text></g><g class="message" data-participant-1="LLM" data-participant-2="GN"><polygon fill="#181818" points="1560.3516,2420.3003,1529.1016,2432.8003,1560.3516,2445.3003,1547.8516,2432.8003" style="stroke:#181818;stroke-width:3.125;"/><line style="stroke:#181818;stroke-width:3.125;stroke-dasharray:6.25,6.25;" x1="1541.6016" x2="2178.6758" y1="2432.8003" y2="2432.8003"/><text fill="#000000" font-family="sans-serif" font-size="40.625" lengthAdjust="spacing" textLength="295.047" x="1579.1016" y="2417.981">fuzz driver&#28304;&#30721;</text></g><g class="message" data-participant-1="GN" data-participant-2="Main"><polygon fill="#181818" points="146.875,2511.8958,115.625,2524.3958,146.875,2536.8958,134.375,2524.3958" style="stroke:#181818;stroke-width:3.125;"/><line style="stroke:#181818;stroke-width:3.125;stroke-dasharray:6.25,6.25;" x1="128.125" x2="1507.2266" y1="2524.3958" y2="2524.3958"/><text fill="#000000" font-family="sans-serif" font-size="40.625" lengthAdjust="spacing" textLength="552.6031" x="165.625" y="2509.5764">{variants: list[DriverVariant]}</text></g><!--SRC=[VLFTJjH06BtlKqouwaP9G8qnN9Xep6vY08bhl36c6Tflbmd3J9sPWc9Cn1Xtex8I0qG3KLaauWKY2I0_CRxCThgyXTFMkbqMxLNRS-PyfzyvbPE4-LZWAIJXGG3CXH6G4bUXo9agarb0WrSisKCQmq8Hb_YOgGxnyXd4ak21tw5Sob4ydw2B0mEvDmAapvdCB5m7ocUk2S5da181M9RVcOhwMWV7OUsdNlhUXx148vYmRjodc34G3kCU99InqMv25GoC5U6imocTuWmFZ-ZL-V3bMeAQfswuh8m0L1yL2KtFbukM5Lj1_LVDF3I4yYvigGoxO65NaMbp5pkoC5NeDW-OXmQHhHlDQBTvycvVVzihMCXSHYIJSc8jXp2Y2APs7ZQ-31wk7kdtsxgn6IsyQ6__q3lF4aeCzcSQDyktHcr9kPBjBy_3-jipXc0XmSbiyq3vWR9xQUC1ePwJA3aLmQSSwOCh3H6eX7Xc-7cdlRlHSww2AHt7xgGZ0WeEi2fX49zYNduL5yuXEwn_ZHOt_xyB5GS8lVOCgW07UlsftdlLEcX4MylHqaPOh-dvPZeh9XjsajKGUZo11JEbIp_eF99_SdKaK73ZYiWdbWTTmMKnb-A1fxhKaxJfbLLA_9MBiNtAiTdUtob1fK8UsiGhM0RkpqHJrtfhNI_NJXMbTTmuMTcF5Z_g-aBwzQbwAHTEnVnE4uvlml5L5anklSqF9xKtUl6m_MlbNmg4kGAcW2bCSphn-ahvtXtkjzTUfrxItjbt9WHWRunpMh2o_YN2bM1s5dc2J8FGHmlHfxbKAfV4D1R4_5jo254YrRqR2VTk-l9-LmXcfxy1]--></g></svg>